<svg xmlns="http://www.w3.org/2000/svg" viewBox="0 0 256 272">
  <g fill="none">
    <path fill="#5382A1" d="M127.5 0C57.1 0 0 57.1 0 127.5S57.1 255 127.5 255 255 197.9 255 127.5 197.9 0 127.5 0zm0 239.6c-61.9 0-112.1-50.2-112.1-112.1S65.6 15.4 127.5 15.4 239.6 65.6 239.6 127.5 189.4 239.6 127.5 239.6z"></path>
    <path fill="#E76F00" d="M96.1 192.3s-5.5 3.2 3.9 4.3c11.4 1.3 17.2 1.1 29.9-1.3 0 0 3.3 2.1 7.9 3.9-28.1 12-63.6-.7-41.7-6.9zM90.4 167.7s-6.2 4.6 3.2 5.6c12 1.3 21.5 1.4 37.9-1.8 0 0 2.4 2.4 6.2 3.7-35.6 10.4-75.2-.8-47.3-7.5zM133.2 136.2c6.8 7.8-1.8 14.8-1.8 14.8s17.3-9 9.4-20.2c-7.5-10.5-13.2-15.7 17.8-33.7 0 0-48.6 12.2-25.4 39.1zM156.4 200.1s4.1 3.4-4.5 6.1c-16.3 4.9-67.8 6.4-82.1.2-5.1-2.2 4.6-5.3 7.7-6 3.2-.7 5.1-.6 5.1-.6-5.8-4.1-37.4 8-16.1 11.5 58.5 9.5 106.7-4.3 94.9-11.2zM102.7 122.3s-26.5 6.3-9.4 8.6c7.3 1 21.9.8 35.5-.4 11.1-1 22.2-3.1 22.2-3.1s-3.9 1.6-6.7 3.4c-27.1 7.1-79.5 3.8-64.4-3.5 12.8-6.1 22.8-5.4 22.8-5.4z"></path>
    <path fill="#5382A1" d="M166.3 184.3c27.7-14.4 14.9-28.2 6-26.3-2.2.5-3.2 1-3.2 1s.8-1.3 2.6-1.8c19.4-6.8 34.2 20.1-6.3 28.7 0 .1.4-.3.9-.7zM151.5 39.2s15.1 15.1-14.3 38.4c-23.5 18.5-5.4 29.1 0 41.3-13.9-12.5-24.2-23.5-17.3-33.8 10-14.7 38.2-21.9 31.6-45.9z"></path>
  </g>
</svg>
