<?xml version="1.0" encoding="utf-8" ?>
<svg baseProfile="full" height="1024" version="1.1" width="1024" xmlns="http://www.w3.org/2000/svg" xmlns:ev="http://www.w3.org/2001/xml-events" xmlns:xlink="http://www.w3.org/1999/xlink"><defs /><polygon fill="black" points="347,361 347,369 354,369 355,370 362,370 363,371 367,371 368,372 369,372 370,373 371,373 372,374 373,374 374,375 375,375 382,382 382,383 384,385 384,386 386,388 386,389 387,390 387,391 388,392 388,393 389,394 389,395 390,396 390,397 391,398 391,399 392,400 392,402 393,403 393,405 394,406 394,407 395,408 395,409 396,410 396,411 397,412 397,414 398,415 398,416 399,417 399,418 400,419 400,421 401,422 401,423 402,424 402,426 403,427 403,429 404,430 404,431 405,432 405,434 406,435 406,436 407,437 407,438 408,439 408,441 409,442 409,443 410,444 410,445 411,446 411,447 412,448 412,450 413,451 413,453 414,454 414,455 415,456 415,457 416,458 416,460 417,461 417,462 418,463 418,465 419,466 419,467 420,468 420,470 421,471 421,473 422,474 422,475 423,476 423,477 424,478 424,479 425,480 425,482 426,483 426,485 427,486 427,487 428,488 428,489 429,490 429,492 430,493 430,494 431,495 431,496 432,497 432,499 433,500 433,501 434,502 434,504 435,505 435,506 436,507 436,509 437,510 437,511 438,512 438,514 439,515 439,516 440,517 440,518 441,519 441,521 442,522 442,524 443,525 443,526 444,527 444,528 445,529 445,531 446,532 446,533 447,534 447,535 448,536 448,538 449,539 449,540 450,541 450,543 451,544 451,545 452,546 452,548 453,549 453,550 454,551 454,553 455,554 455,555 456,556 456,557 457,558 457,560 458,561 458,562 459,563 459,565 460,566 460,567 461,568 461,570 462,571 462,572 463,573 463,574 464,575 464,577 465,578 465,579 466,580 466,582 467,583 467,584 468,585 468,587 469,588 469,589 470,590 470,591 471,592 471,594 472,595 472,596 473,597 473,599 474,600 474,602 475,603 475,604 476,605 476,606 477,607 477,609 478,610 478,611 479,612 479,613 480,614 480,616 481,617 481,619 482,620 482,621 483,622 483,623 484,624 484,626 485,627 485,629 486,630 486,631 487,632 487,633 488,634 488,636 489,637 489,638 490,639 490,641 491,642 491,643 492,644 492,646 493,647 493,648 494,649 494,651 495,652 495,653 496,654 496,656 497,657 497,659 498,660 498,661 499,662 499,664 500,665 500,667 501,668 501,670 502,671 502,672 503,673 511,673 512,672 513,672 514,671 515,671 516,670 517,670 517,669 518,668 518,667 519,666 519,664 520,663 520,662 521,661 521,659 522,658 522,656 523,655 523,654 524,653 524,652 525,651 525,650 526,649 526,647 527,646 527,644 528,643 528,642 529,641 529,640 530,639 529,638 529,636 528,635 528,634 527,633 527,632 526,631 526,629 525,628 525,626 524,625 524,624 523,623 523,622 522,621 522,619 521,618 521,617 520,616 520,614 519,613 519,612 518,611 518,609 517,608 517,607 516,606 516,605 515,604 515,602 514,601 514,600 513,599 513,598 512,597 512,595 511,594 511,593 510,592 510,590 509,589 509,588 508,587 508,586 507,585 507,583 506,582 506,581 505,580 505,578 504,577 504,576 503,575 503,573 502,572 502,571 501,570 501,568 500,567 500,566 499,565 499,564 498,563 498,561 496,559 496,557 495,556 495,554 494,553 494,552 493,551 493,549 492,548 492,547 491,546 491,544 490,543 490,542 489,541 489,540 488,539 488,538 487,537 487,535 486,534 486,532 485,531 485,530 484,529 484,528 483,527 483,525 482,524 482,523 481,522 481,520 480,519 480,518 479,517 479,516 478,515 478,513 477,512 477,510 476,509 476,508 475,507 475,506 474,505 474,503 473,502 473,501 472,500 472,498 471,497 471,496 470,495 470,493 469,492 469,491 468,490 468,488 467,487 467,486 466,485 466,483 465,482 465,481 464,480 464,479 463,478 463,476 462,475 462,474 461,473 461,471 460,470 460,468 459,467 459,466 458,465 458,464 457,463 457,461 456,460 456,459 455,458 455,456 454,455 454,453 453,452 453,451 452,450 452,448 451,447 451,446 450,445 450,443 449,442 449,441 448,440 448,439 447,438 447,436 446,435 446,434 445,433 445,432 444,431 444,429 443,428 443,426 442,425 442,424 441,423 441,422 440,421 440,419 439,418 439,417 438,416 438,414 437,413 437,412 436,411 436,409 435,408 435,407 434,406 434,404 433,403 433,402 432,401 432,400 431,399 431,397 430,396 430,395 429,394 429,393 428,392 428,389 427,388 427,379 428,378 428,377 432,373 433,373 434,372 435,372 436,371 437,371 438,372 437,373 437,375 436,376 436,382 437,383 437,386 438,387 438,388 439,389 439,391 440,392 440,394 441,395 441,396 442,397 442,399 443,400 443,401 444,402 444,404 445,405 445,407 446,408 446,409 447,410 447,411 448,412 448,414 449,415 449,416 450,417 450,418 451,419 451,421 452,422 452,423 453,424 453,426 454,427 454,428 455,429 455,430 456,431 456,433 457,434 457,435 458,436 458,438 459,439 459,440 460,441 460,443 461,444 461,445 462,446 462,447 463,448 463,449 464,450 464,452 465,453 465,454 466,455 466,457 467,458 467,459 468,460 468,462 469,463 469,464 470,465 470,466 471,467 471,469 472,470 472,471 473,472 473,474 474,475 474,476 475,477 475,479 476,480 476,481 477,482 477,484 478,485 478,486 479,487 479,488 480,489 480,490 481,491 481,493 482,494 482,495 483,496 483,498 484,499 484,501 485,502 485,503 486,504 486,505 487,506 487,508 488,509 488,510 489,511 489,513 490,514 490,515 491,516 491,518 492,519 492,521 493,522 493,523 494,524 494,525 495,526 495,527 496,528 496,530 497,531 497,533 498,534 498,535 499,536 499,538 500,539 500,540 501,541 501,543 502,544 502,545 503,546 503,547 504,548 504,549 505,550 505,552 506,553 506,554 507,555 507,557 508,558 508,559 509,560 509,562 510,563 510,564 511,565 511,566 512,567 512,569 513,570 513,571 514,572 514,573 515,574 515,575 516,576 516,578 517,579 517,581 518,582 518,583 519,584 519,585 520,586 520,588 521,589 521,590 522,591 522,593 523,594 523,595 524,596 524,598 525,599 525,600 526,601 526,603 527,604 527,605 528,606 528,607 529,608 529,610 530,611 530,612 531,613 531,615 532,616 532,617 533,618 533,619 534,620 534,622 535,623 536,622 536,621 537,620 537,619 538,618 538,616 539,615 539,614 540,613 540,612 541,611 541,610 542,609 542,607 543,606 543,605 544,604 544,603 545,602 545,600 546,599 546,598 547,597 547,596 548,595 548,594 549,593 549,591 550,590 550,589 551,588 551,586 552,585 552,584 553,583 553,582 554,581 554,579 555,578 555,576 556,575 556,574 557,573 557,572 558,571 558,570 559,569 559,567 560,566 560,565 561,564 561,563 562,562 562,560 563,559 563,558 564,557 564,555 565,554 565,553 566,552 566,550 567,549 567,548 568,547 568,545 569,544 569,543 570,542 570,541 571,540 571,538 572,537 572,536 573,535 573,534 574,533 574,531 575,530 575,528 576,527 576,526 577,525 577,524 578,523 578,521 579,520 579,519 580,518 580,516 581,515 581,514 582,513 582,511 583,510 583,509 584,508 584,506 585,505 585,504 586,503 586,502 587,501 587,499 588,498 588,496 589,495 589,494 590,493 590,492 591,491 591,489 592,488 592,487 593,486 593,485 594,484 594,482 595,481 595,480 596,479 596,478 597,477 597,475 598,474 598,473 599,472 599,470 600,469 600,468 601,467 601,466 602,465 602,463 603,462 603,460 604,459 604,458 605,457 605,456 606,455 606,454 607,453 607,451 608,450 608,448 609,447 609,446 610,445 610,444 611,443 611,442 612,441 612,439 613,438 613,437 614,436 614,435 615,434 615,432 616,431 616,430 617,429 617,427 618,426 618,425 619,424 619,422 620,421 620,420 621,419 621,418 622,417 622,415 623,414 623,413 624,412 624,411 625,410 625,408 626,407 626,406 627,405 627,404 628,403 628,402 629,401 629,400 630,399 630,398 631,397 631,395 633,393 633,392 634,391 634,390 636,388 636,387 638,385 638,384 644,378 645,378 648,375 649,375 650,374 651,374 652,373 653,373 654,372 655,372 656,371 659,371 660,370 665,370 666,369 674,369 675,368 675,367 674,366 675,365 675,362 674,361 578,361 578,369 591,369 592,370 596,370 597,371 599,371 602,374 603,374 605,376 605,377 607,379 607,381 608,382 608,395 607,396 607,399 606,400 606,402 605,403 605,405 604,406 604,408 603,409 603,411 602,412 602,413 601,414 601,417 600,418 600,419 599,420 599,422 598,423 598,425 597,426 597,427 596,428 596,431 595,432 595,433 594,434 594,436 593,437 593,439 592,440 592,441 591,442 591,444 590,445 590,446 589,447 589,449 588,450 588,451 587,452 587,453 586,454 586,456 585,457 585,459 584,460 584,461 583,462 583,464 582,465 582,466 581,467 581,469 580,470 580,471 579,472 579,474 578,475 578,476 577,477 577,479 576,480 576,481 575,482 575,484 574,485 574,487 573,488 573,489 572,490 572,491 571,492 571,493 570,494 570,496 569,497 569,499 568,500 568,501 567,502 567,504 566,505 566,506 565,507 565,509 564,510 564,511 563,512 563,513 562,514 562,516 561,517 561,519 560,520 560,521 559,522 559,524 558,525 558,526 557,527 557,529 556,530 556,531 555,532 555,534 554,535 554,536 553,537 553,539 552,540 552,541 551,542 551,544 550,545 550,546 549,547 549,549 548,550 548,551 547,552 547,554 546,555 546,556 545,557 545,559 544,560 544,562 543,563 543,564 542,565 542,567 541,568 541,569 540,570 540,572 539,573 539,574 538,575 538,576 537,577 537,579 536,580 536,581 535,582 535,584 534,585 534,587 533,588 532,588 531,587 531,585 530,584 530,583 529,582 529,580 528,579 528,578 527,577 527,576 526,575 526,573 525,572 525,571 524,570 524,568 523,567 523,566 522,565 522,563 521,562 521,561 520,560 520,559 519,558 519,556 518,555 518,554 517,553 517,551 516,550 516,549 515,548 515,546 514,545 514,544 513,543 513,542 512,541 512,539 511,538 511,537 510,536 510,534 509,533 509,532 508,531 508,529 507,528 507,527 506,526 506,524 505,523 505,522 504,521 504,520 503,519 503,517 502,516 502,514 501,513 501,512 500,511 500,510 499,509 499,507 498,506 498,505 497,504 497,502 496,501 496,500 495,499 495,498 494,497 494,495 493,494 493,493 492,492 492,490 491,489 491,488 490,487 490,485 489,484 489,483 488,482 488,481 487,480 487,478 486,477 486,476 485,475 485,474 484,473 484,472 483,471 483,469 482,468 482,466 481,465 481,464 480,463 480,462 479,461 479,459 478,458 478,457 477,456 477,454 476,453 476,452 475,451 475,449 474,448 474,447 473,446 473,444 472,443 472,442 471,441 471,440 470,439 470,437 469,436 469,434 468,433 468,432 467,431 467,430 466,429 466,427 465,426 465,425 464,424 464,423 463,422 463,420 462,419 462,418 461,417 461,415 460,414 460,413 459,412 459,410 458,409 458,408 457,407 457,406 456,405 456,403 455,402 455,401 454,400 454,398 453,397 453,396 452,395 452,394 451,393 451,392 450,391 450,389 449,388 449,387 448,386 448,384 447,383 447,381 446,380 446,375 447,374 447,373 449,371 450,371 451,370 454,370 455,369 471,369 471,361" /></svg>