<?xml version="1.0" encoding="utf-8" ?>
<svg baseProfile="full" height="313" version="1.1" width="329" xmlns="http://www.w3.org/2000/svg" xmlns:ev="http://www.w3.org/2001/xml-events" xmlns:xlink="http://www.w3.org/1999/xlink"><defs /><polygon fill="black" points="0,0 0,8 7,8 8,9 15,9 16,10 20,10 21,11 22,11 23,12 24,12 25,13 26,13 27,14 28,14 35,21 35,22 37,24 37,25 39,27 39,28 40,29 40,30 41,31 41,32 42,33 42,34 43,35 43,36 44,37 44,38 45,39 45,41 46,42 46,44 47,45 47,46 48,47 48,48 49,49 49,50 50,51 50,53 51,54 51,55 52,56 52,57 53,58 53,60 54,61 54,62 55,63 55,65 56,66 56,68 57,69 57,70 58,71 58,73 59,74 59,75 60,76 60,77 61,78 61,80 62,81 62,82 63,83 63,84 64,85 64,86 65,87 65,89 66,90 66,92 67,93 67,94 68,95 68,96 69,97 69,99 70,100 70,101 71,102 71,104 72,105 72,106 73,107 73,109 74,110 74,112 75,113 75,114 76,115 76,116 77,117 77,118 78,119 78,121 79,122 79,124 80,125 80,126 81,127 81,128 82,129 82,131 83,132 83,133 84,134 84,135 85,136 85,138 86,139 86,140 87,141 87,143 88,144 88,145 89,146 89,148 90,149 90,150 91,151 91,153 92,154 92,155 93,156 93,157 94,158 94,160 95,161 95,163 96,164 96,165 97,166 97,167 98,168 98,170 99,171 99,172 100,173 100,174 101,175 101,177 102,178 102,179 103,180 103,182 104,183 104,184 105,185 105,187 106,188 106,189 107,190 107,192 108,193 108,194 109,195 109,196 110,197 110,199 111,200 111,201 112,202 112,204 113,205 113,206 114,207 114,209 115,210 115,211 116,212 116,213 117,214 117,216 118,217 118,218 119,219 119,221 120,222 120,223 121,224 121,226 122,227 122,228 123,229 123,230 124,231 124,233 125,234 125,235 126,236 126,238 127,239 127,241 128,242 128,243 129,244 129,245 130,246 130,248 131,249 131,250 132,251 132,252 133,253 133,255 134,256 134,258 135,259 135,260 136,261 136,262 137,263 137,265 138,266 138,268 139,269 139,270 140,271 140,272 141,273 141,275 142,276 142,277 143,278 143,280 144,281 144,282 145,283 145,285 146,286 146,287 147,288 147,290 148,291 148,292 149,293 149,295 150,296 150,298 151,299 151,300 152,301 152,303 153,304 153,306 154,307 154,309 155,310 155,311 156,312 164,312 165,311 166,311 167,310 168,310 169,309 170,309 170,308 171,307 171,306 172,305 172,303 173,302 173,301 174,300 174,298 175,297 175,295 176,294 176,293 177,292 177,291 178,290 178,289 179,288 179,286 180,285 180,283 181,282 181,281 182,280 182,279 183,278 182,277 182,275 181,274 181,273 180,272 180,271 179,270 179,268 178,267 178,265 177,264 177,263 176,262 176,261 175,260 175,258 174,257 174,256 173,255 173,253 172,252 172,251 171,250 171,248 170,247 170,246 169,245 169,244 168,243 168,241 167,240 167,239 166,238 166,237 165,236 165,234 164,233 164,232 163,231 163,229 162,228 162,227 161,226 161,225 160,224 160,222 159,221 159,220 158,219 158,217 157,216 157,215 156,214 156,212 155,211 155,210 154,209 154,207 153,206 153,205 152,204 152,203 151,202 151,200 149,198 149,196 148,195 148,193 147,192 147,191 146,190 146,188 145,187 145,186 144,185 144,183 143,182 143,181 142,180 142,179 141,178 141,177 140,176 140,174 139,173 139,171 138,170 138,169 137,168 137,167 136,166 136,164 135,163 135,162 134,161 134,159 133,158 133,157 132,156 132,155 131,154 131,152 130,151 130,149 129,148 129,147 128,146 128,145 127,144 127,142 126,141 126,140 125,139 125,137 124,136 124,135 123,134 123,132 122,131 122,130 121,129 121,127 120,126 120,125 119,124 119,122 118,121 118,120 117,119 117,118 116,117 116,115 115,114 115,113 114,112 114,110 113,109 113,107 112,106 112,105 111,104 111,103 110,102 110,100 109,99 109,98 108,97 108,95 107,94 107,92 106,91 106,90 105,89 105,87 104,86 104,85 103,84 103,82 102,81 102,80 101,79 101,78 100,77 100,75 99,74 99,73 98,72 98,71 97,70 97,68 96,67 96,65 95,64 95,63 94,62 94,61 93,60 93,58 92,57 92,56 91,55 91,53 90,52 90,51 89,50 89,48 88,47 88,46 87,45 87,43 86,42 86,41 85,40 85,39 84,38 84,36 83,35 83,34 82,33 82,32 81,31 81,28 80,27 80,18 81,17 81,16 85,12 86,12 87,11 88,11 89,10 90,10 91,11 90,12 90,14 89,15 89,21 90,22 90,25 91,26 91,27 92,28 92,30 93,31 93,33 94,34 94,35 95,36 95,38 96,39 96,40 97,41 97,43 98,44 98,46 99,47 99,48 100,49 100,50 101,51 101,53 102,54 102,55 103,56 103,57 104,58 104,60 105,61 105,62 106,63 106,65 107,66 107,67 108,68 108,69 109,70 109,72 110,73 110,74 111,75 111,77 112,78 112,79 113,80 113,82 114,83 114,84 115,85 115,86 116,87 116,88 117,89 117,91 118,92 118,93 119,94 119,96 120,97 120,98 121,99 121,101 122,102 122,103 123,104 123,105 124,106 124,108 125,109 125,110 126,111 126,113 127,114 127,115 128,116 128,118 129,119 129,120 130,121 130,123 131,124 131,125 132,126 132,127 133,128 133,129 134,130 134,132 135,133 135,134 136,135 136,137 137,138 137,140 138,141 138,142 139,143 139,144 140,145 140,147 141,148 141,149 142,150 142,152 143,153 143,154 144,155 144,157 145,158 145,160 146,161 146,162 147,163 147,164 148,165 148,166 149,167 149,169 150,170 150,172 151,173 151,174 152,175 152,177 153,178 153,179 154,180 154,182 155,183 155,184 156,185 156,186 157,187 157,188 158,189 158,191 159,192 159,193 160,194 160,196 161,197 161,198 162,199 162,201 163,202 163,203 164,204 164,205 165,206 165,208 166,209 166,210 167,211 167,212 168,213 168,214 169,215 169,217 170,218 170,220 171,221 171,222 172,223 172,224 173,225 173,227 174,228 174,229 175,230 175,232 176,233 176,234 177,235 177,237 178,238 178,239 179,240 179,242 180,243 180,244 181,245 181,246 182,247 182,249 183,250 183,251 184,252 184,254 185,255 185,256 186,257 186,258 187,259 187,261 188,262 189,261 189,260 190,259 190,258 191,257 191,255 192,254 192,253 193,252 193,251 194,250 194,249 195,248 195,246 196,245 196,244 197,243 197,242 198,241 198,239 199,238 199,237 200,236 200,235 201,234 201,233 202,232 202,230 203,229 203,228 204,227 204,225 205,224 205,223 206,222 206,221 207,220 207,218 208,217 208,215 209,214 209,213 210,212 210,211 211,210 211,209 212,208 212,206 213,205 213,204 214,203 214,202 215,201 215,199 216,198 216,197 217,196 217,194 218,193 218,192 219,191 219,189 220,188 220,187 221,186 221,184 222,183 222,182 223,181 223,180 224,179 224,177 225,176 225,175 226,174 226,173 227,172 227,170 228,169 228,167 229,166 229,165 230,164 230,163 231,162 231,160 232,159 232,158 233,157 233,155 234,154 234,153 235,152 235,150 236,149 236,148 237,147 237,145 238,144 238,143 239,142 239,141 240,140 240,138 241,137 241,135 242,134 242,133 243,132 243,131 244,130 244,128 245,127 245,126 246,125 246,124 247,123 247,121 248,120 248,119 249,118 249,117 250,116 250,114 251,113 251,112 252,111 252,109 253,108 253,107 254,106 254,105 255,104 255,102 256,101 256,99 257,98 257,97 258,96 258,95 259,94 259,93 260,92 260,90 261,89 261,87 262,86 262,85 263,84 263,83 264,82 264,81 265,80 265,78 266,77 266,76 267,75 267,74 268,73 268,71 269,70 269,69 270,68 270,66 271,65 271,64 272,63 272,61 273,60 273,59 274,58 274,57 275,56 275,54 276,53 276,52 277,51 277,50 278,49 278,47 279,46 279,45 280,44 280,43 281,42 281,41 282,40 282,39 283,38 283,37 284,36 284,34 286,32 286,31 287,30 287,29 289,27 289,26 291,24 291,23 297,17 298,17 301,14 302,14 303,13 304,13 305,12 306,12 307,11 308,11 309,10 312,10 313,9 318,9 319,8 327,8 328,7 328,6 327,5 328,4 328,1 327,0 231,0 231,8 244,8 245,9 249,9 250,10 252,10 255,13 256,13 258,15 258,16 260,18 260,20 261,21 261,34 260,35 260,38 259,39 259,41 258,42 258,44 257,45 257,47 256,48 256,50 255,51 255,52 254,53 254,56 253,57 253,58 252,59 252,61 251,62 251,64 250,65 250,66 249,67 249,70 248,71 248,72 247,73 247,75 246,76 246,78 245,79 245,80 244,81 244,83 243,84 243,85 242,86 242,88 241,89 241,90 240,91 240,92 239,93 239,95 238,96 238,98 237,99 237,100 236,101 236,103 235,104 235,105 234,106 234,108 233,109 233,110 232,111 232,113 231,114 231,115 230,116 230,118 229,119 229,120 228,121 228,123 227,124 227,126 226,127 226,128 225,129 225,130 224,131 224,132 223,133 223,135 222,136 222,138 221,139 221,140 220,141 220,143 219,144 219,145 218,146 218,148 217,149 217,150 216,151 216,152 215,153 215,155 214,156 214,158 213,159 213,160 212,161 212,163 211,164 211,165 210,166 210,168 209,169 209,170 208,171 208,173 207,174 207,175 206,176 206,178 205,179 205,180 204,181 204,183 203,184 203,185 202,186 202,188 201,189 201,190 200,191 200,193 199,194 199,195 198,196 198,198 197,199 197,201 196,202 196,203 195,204 195,206 194,207 194,208 193,209 193,211 192,212 192,213 191,214 191,215 190,216 190,218 189,219 189,220 188,221 188,223 187,224 187,226 186,227 185,227 184,226 184,224 183,223 183,222 182,221 182,219 181,218 181,217 180,216 180,215 179,214 179,212 178,211 178,210 177,209 177,207 176,206 176,205 175,204 175,202 174,201 174,200 173,199 173,198 172,197 172,195 171,194 171,193 170,192 170,190 169,189 169,188 168,187 168,185 167,184 167,183 166,182 166,181 165,180 165,178 164,177 164,176 163,175 163,173 162,172 162,171 161,170 161,168 160,167 160,166 159,165 159,163 158,162 158,161 157,160 157,159 156,158 156,156 155,155 155,153 154,152 154,151 153,150 153,149 152,148 152,146 151,145 151,144 150,143 150,141 149,140 149,139 148,138 148,137 147,136 147,134 146,133 146,132 145,131 145,129 144,128 144,127 143,126 143,124 142,123 142,122 141,121 141,120 140,119 140,117 139,116 139,115 138,114 138,113 137,112 137,111 136,110 136,108 135,107 135,105 134,104 134,103 133,102 133,101 132,100 132,98 131,97 131,96 130,95 130,93 129,92 129,91 128,90 128,88 127,87 127,86 126,85 126,83 125,82 125,81 124,80 124,79 123,78 123,76 122,75 122,73 121,72 121,71 120,70 120,69 119,68 119,66 118,65 118,64 117,63 117,62 116,61 116,59 115,58 115,57 114,56 114,54 113,53 113,52 112,51 112,49 111,48 111,47 110,46 110,45 109,44 109,42 108,41 108,40 107,39 107,37 106,36 106,35 105,34 105,33 104,32 104,31 103,30 103,28 102,27 102,26 101,25 101,23 100,22 100,20 99,19 99,14 100,13 100,12 102,10 103,10 104,9 107,9 108,8 124,8 124,0" /></svg>