<svg xmlns="http://www.w3.org/2000/svg" viewBox="0 0 256 255">
  <g>
    <path fill="#3776AB" d="M127.9.4C105.1.4 85.8 5.7 85.8 5.7s-8.6 2-12.5 5.3c-5.6 4.6-5.2 9.6-5.2 9.6v38.5s0 10.5 11.6 10.5h57.6v7.9H75.5s-37.2-4.3-37.2 40.3 32.5 41.2 32.5 41.2h23.3v-14.1s-.4-7.9 7.4-7.9 41.3 0 41.3 0 7.1.1 7.1-7.1v-59.5s.9-10.9-7.7-18.2C149.3 3.1 127.9.4 127.9.4zM99.4 26.1c5.1 0 9.3 4.2 9.3 9.3s-4.2 9.3-9.3 9.3-9.3-4.2-9.3-9.3 4.1-9.3 9.3-9.3z"></path>
    <path fill="#FFE052" d="M128.3 254.7c22.8 0 42.1-5.3 42.1-5.3s8.6-2 12.5-5.3c5.6-4.6 5.2-9.6 5.2-9.6v-38.5s0-10.5-11.6-10.5h-57.6v-7.9h61.8s37.2 4.3 37.2-40.3-32.5-41.2-32.5-41.2h-23.3v14.1s.4 7.9-7.4 7.9-41.3 0-41.3 0-7.1-.1-7.1 7.1v59.5s-.9 10.9 7.7 18.2c10.6 9.5 31.9 12.2 31.9 12.2zM156.8 228.9c-5.1 0-9.3-4.2-9.3-9.3s4.2-9.3 9.3-9.3 9.3 4.2 9.3 9.3-4.2 9.3-9.3 9.3z"></path>
  </g>
</svg>
